solid 
facet normal -1.0 0.0 0.0
outer loop
vertex -0.03 -0.00202669681901379 0.005735198340406318
vertex -0.03 -5.708131298937399e-05 0.006082494695740179
vertex -0.03 5.708131298937399e-05 -0.006082494695740179
endloop
endfacet
facet normal 0.0 -0.9848077530122082 -0.17364817766693036
outer loop
vertex 0.03 5.708131298937399e-05 -0.006082494695740179
vertex -0.03 -0.00202669681901379 0.005735198340406318
vertex -0.03 5.708131298937399e-05 -0.006082494695740179
endloop
endfacet
facet normal -1.0 0.0 0.0
outer loop
vertex -0.03 5.708131298937399e-05 -0.006082494695740179
vertex -0.03 -5.708131298937399e-05 0.006082494695740179
vertex -0.03 0.00202669681901379 -0.005735198340406318
endloop
endfacet
facet normal 0.0 0.17364817766693036 -0.9848077530122082
outer loop
vertex -0.03 0.00202669681901379 -0.005735198340406318
vertex 0.03 5.708131298937399e-05 -0.006082494695740179
vertex -0.03 5.708131298937399e-05 -0.006082494695740179
endloop
endfacet
facet normal 0.0 -0.17364817766693036 0.9848077530122082
outer loop
vertex -0.03 -0.00202669681901379 0.005735198340406318
vertex 0.03 -5.708131298937399e-05 0.006082494695740179
vertex -0.03 -5.708131298937399e-05 0.006082494695740179
endloop
endfacet
facet normal 0.0 -0.9848077530122082 -0.17364817766693036
outer loop
vertex 0.03 -0.00202669681901379 0.005735198340406318
vertex -0.03 -0.00202669681901379 0.005735198340406318
vertex 0.03 5.708131298937399e-05 -0.006082494695740179
endloop
endfacet
facet normal 0.0 -0.17364817766693036 0.9848077530122082
outer loop
vertex 0.03 -0.00202669681901379 0.005735198340406318
vertex 0.03 -5.708131298937399e-05 0.006082494695740179
vertex -0.03 -0.00202669681901379 0.005735198340406318
endloop
endfacet
facet normal 0.0 0.9848077530122082 0.17364817766693036
outer loop
vertex -0.03 -5.708131298937399e-05 0.006082494695740179
vertex 0.03 -5.708131298937399e-05 0.006082494695740179
vertex -0.03 0.00202669681901379 -0.005735198340406318
endloop
endfacet
facet normal 0.0 0.17364817766693036 -0.9848077530122082
outer loop
vertex 0.03 0.00202669681901379 -0.005735198340406318
vertex 0.03 5.708131298937399e-05 -0.006082494695740179
vertex -0.03 0.00202669681901379 -0.005735198340406318
endloop
endfacet
facet normal 0.0 0.9848077530122082 0.17364817766693036
outer loop
vertex -0.03 0.00202669681901379 -0.005735198340406318
vertex 0.03 -5.708131298937399e-05 0.006082494695740179
vertex 0.03 0.00202669681901379 -0.005735198340406318
endloop
endfacet
facet normal 1.0 0.0 0.0
outer loop
vertex 0.03 0.00202669681901379 -0.005735198340406318
vertex 0.03 -0.00202669681901379 0.005735198340406318
vertex 0.03 5.708131298937399e-05 -0.006082494695740179
endloop
endfacet
facet normal 1.0 0.0 0.0
outer loop
vertex 0.03 -5.708131298937399e-05 0.006082494695740179
vertex 0.03 -0.00202669681901379 0.005735198340406318
vertex 0.03 0.00202669681901379 -0.005735198340406318
endloop
endfacet

endsolid
